<?xml version="1.0" encoding="UTF-8" standalone="no"?>
<!-- Generator: Adobe Illustrator 19.0.0, SVG Export Plug-In . SVG Version: 6.00 Build 0)  -->

<svg
   xmlns:dc="http://purl.org/dc/elements/1.1/"
   xmlns:cc="http://creativecommons.org/ns#"
   xmlns:rdf="http://www.w3.org/1999/02/22-rdf-syntax-ns#"
   xmlns:svg="http://www.w3.org/2000/svg"
   xmlns="http://www.w3.org/2000/svg"
   xmlns:sodipodi="http://sodipodi.sourceforge.net/DTD/sodipodi-0.dtd"
   xmlns:inkscape="http://www.inkscape.org/namespaces/inkscape"
   width="24px"
   height="24px"
   viewBox="0 0 24 24"
   id="_24x24_On_Light_Messages"
   data-name="24x24/On Light/Messages"
   version="1.1"
   sodipodi:docname="user-svgrepo-com.svg"
   inkscape:version="0.92.2 (5c3e80d, 2017-08-06)">
  <metadata
     id="metadata9">
    <rdf:RDF>
      <cc:Work
         rdf:about="">
        <dc:format>image/svg+xml</dc:format>
        <dc:type
           rdf:resource="http://purl.org/dc/dcmitype/StillImage" />
      </cc:Work>
    </rdf:RDF>
  </metadata>
  <defs
     id="defs7" />
  <sodipodi:namedview
     pagecolor="#ffffff"
     bordercolor="#666666"
     borderopacity="1"
     objecttolerance="10"
     gridtolerance="10"
     guidetolerance="10"
     inkscape:pageopacity="0"
     inkscape:pageshadow="2"
     inkscape:window-width="1920"
     inkscape:window-height="1017"
     id="namedview5"
     showgrid="false"
     inkscape:zoom="16"
     inkscape:cx="0.78511439"
     inkscape:cy="-0.42218763"
     inkscape:window-x="-8"
     inkscape:window-y="-8"
     inkscape:window-maximized="1"
     inkscape:current-layer="_24x24_On_Light_Messages" />
  <rect
     id="view-box"
     width="24"
     height="24"
     fill="none" />
  <path
     id="Shape"
     d="M6.485,18.519a9.891,9.891,0,0,1-4.876.981c-.285,0-.584-.006-.887-.018a.739.739,0,0,1-.65-.432.738.738,0,0,1,.085-.775,11.192,11.192,0,0,0,2.072-3.787A9.751,9.751,0,1,1,10.751,19.5,9.661,9.661,0,0,1,6.485,18.519ZM6.808,17a8.247,8.247,0,1,0-3.139-3.015.75.75,0,0,1,.092.535A10.189,10.189,0,0,1,2.2,17.99a7.2,7.2,0,0,0,3.816-.947.745.745,0,0,1,.431-.136A.756.756,0,0,1,6.808,17Zm-.057-4.5a.75.75,0,0,1,0-1.5h7a.75.75,0,0,1,0,1.5Zm0-4a.75.75,0,0,1,0-1.5h5a.75.75,0,1,1,0,1.5Z"
     transform="translate(1.249 2.25)"
     fill="#141124"
     inkscape:label="Shape"
     style="fill:#ffffff;fill-opacity:1" />
</svg>
