<?xml version="1.0" encoding="UTF-8" standalone="no"?>
<!-- Created with Inkscape (http://www.inkscape.org/) -->

<svg
   xmlns:dc="http://purl.org/dc/elements/1.1/"
   xmlns:cc="http://creativecommons.org/ns#"
   xmlns:rdf="http://www.w3.org/1999/02/22-rdf-syntax-ns#"
   xmlns:svg="http://www.w3.org/2000/svg"
   xmlns="http://www.w3.org/2000/svg"
   xmlns:sodipodi="http://sodipodi.sourceforge.net/DTD/sodipodi-0.dtd"
   xmlns:inkscape="http://www.inkscape.org/namespaces/inkscape"
   width="85.743179mm"
   height="83.569893mm"
   viewBox="0 0 85.743179 83.569893"
   version="1.1"
   id="svg8"
   inkscape:version="0.92.2 (5c3e80d, 2017-08-06)"
   sodipodi:docname="profileImg.svg">
  <defs
     id="defs2" />
  <sodipodi:namedview
     id="base"
     pagecolor="#ffffff"
     bordercolor="#666666"
     borderopacity="1.0"
     inkscape:pageopacity="0.0"
     inkscape:pageshadow="2"
     inkscape:zoom="1.979899"
     inkscape:cx="149.46618"
     inkscape:cy="165.71213"
     inkscape:document-units="mm"
     inkscape:current-layer="layer1"
     showgrid="false"
     fit-margin-top="0"
     fit-margin-left="0"
     fit-margin-right="0"
     fit-margin-bottom="0"
     inkscape:window-width="1920"
     inkscape:window-height="1017"
     inkscape:window-x="-8"
     inkscape:window-y="-8"
     inkscape:window-maximized="1" />
  <metadata
     id="metadata5">
    <rdf:RDF>
      <cc:Work
         rdf:about="">
        <dc:format>image/svg+xml</dc:format>
        <dc:type
           rdf:resource="http://purl.org/dc/dcmitype/StillImage" />
        <dc:title></dc:title>
      </cc:Work>
    </rdf:RDF>
  </metadata>
  <g
     inkscape:label="Layer 1"
     inkscape:groupmode="layer"
     id="layer1"
     transform="translate(-10.343715,-59.750253)">
    <path
       sodipodi:type="spiral"
       style="fill:#ff2a2a;fill-rule:evenodd;stroke:#000000;stroke-width:1.36500001;stroke-linecap:round;stroke-miterlimit:4;stroke-dasharray:none;stroke-dashoffset:0"
       id="path817"
       sodipodi:cx="54.42857"
       sodipodi:cy="100.45238"
       sodipodi:expansion="1.28"
       sodipodi:revolution="11.552242"
       sodipodi:radius="44.371826"
       sodipodi:argument="-30.62022"
       sodipodi:t0="0.059999999"
       d="m 54.942636,99.355912 c 0.857679,0.131865 1.293792,1.068168 1.112241,1.858938 -0.267595,1.16555 -1.558756,1.73793 -2.656539,1.43494 -1.492534,-0.41195 -2.210679,-2.08762 -1.773013,-3.511685 0.564373,-1.836341 2.648599,-2.708048 4.415737,-2.125054 2.195127,0.724192 3.22716,3.237529 2.489851,5.362669 -0.890765,2.56744 -3.851315,3.76584 -6.347962,2.8664 -2.952135,-1.06354 -4.322386,-4.48761 -3.253852,-7.368112 1.242044,-3.348248 5.144498,-4.895403 8.420278,-3.651495 3.754992,1.42588 5.483742,5.820457 4.058707,9.502137 -1.614697,4.17169 -6.514172,6.08643 -10.611721,4.47495 -4.597772,-1.80819 -6.702624,-7.22455 -4.899764,-11.747349 2.006122,-5.032723 7.950639,-7.331601 12.907578,-5.332718 5.476104,2.208236 7.972721,8.691605 5.773446,14.091127 -2.414336,5.92751 -9.446716,8.62541 -15.29686,6.22161 -6.386615,-2.62424 -9.289171,-10.21532 -6.676911,-16.523789 2.837777,-6.853075 10.996832,-9.963536 17.770996,-7.139072 7.32661,3.054804 10.648094,11.790725 7.607843,19.037681 -3.275185,7.80696 -12.596521,11.34246 -20.323088,8.08299 -8.29388,-3.49879 -12.046309,-13.41378 -8.564313,-21.626552 3.725518,-8.787151 14.242111,-12.759302 22.947447,-9.051603 9.286571,3.955254 13.481153,15.081138 9.544683,24.285205 -4.187902,9.79194 -15.930522,14.21159 -25.639283,10.04338 C 35.645028,114.11713 30.997777,101.75056 35.40059,91.531307 40.062178,80.711418 53.059714,75.834079 63.795092,80.474281 c 11.342135,4.902465 16.451973,18.537776 11.571681,29.794759 -5.14593,11.8697 -19.425646,17.21438 -31.20956,12.09138 C 31.754754,116.9685 26.172931,102.03792 31.541206,89.721875 37.181567,76.781599 52.769304,70.960406 65.622557,76.576435 79.10559,82.467637 85.168335,98.718677 79.302128,112.11409 73.157745,126.1447 56.237401,132.45113 42.294998,126.33238 27.712073,119.93253 21.159877,102.33702 27.533479,87.842894 34.19103,72.703044 52.467449,65.903041 67.517927,72.53375 83.219226,79.451189 90.269033,98.414128 83.379009,114.02549 76.199543,130.29267 56.544586,137.59424 40.367901,130.44274 23.530502,122.99915 15.975253,102.64678 23.390338,85.900426 31.100109,68.488545 52.155161,60.677734 69.475461,68.358478 87.466003,76.336442 95.534222,98.099365 87.585789,115.99779 79.337653,134.5711 56.861773,142.89854 38.381104,134.68043 19.221001,126.16018 10.632557,102.96635 19.122305,83.899402 27.916571,64.148543 51.83326,55.297346 71.490454,64.060648 91.835962,73.130804 100.95163,97.775173 91.912894,118.02651 82.565006,138.9705 57.188217,148.35234 36.338896,139.03631 14.792663,129.40888 5.1429938,103.29501 14.738134,81.84393 18.870796,72.604875 26.208494,64.969568 35.254625,60.437145" />
  </g>
</svg>
