<?xml version="1.0" encoding="UTF-8" standalone="no"?>
<svg
   xmlns:dc="http://purl.org/dc/elements/1.1/"
   xmlns:cc="http://creativecommons.org/ns#"
   xmlns:rdf="http://www.w3.org/1999/02/22-rdf-syntax-ns#"
   xmlns:svg="http://www.w3.org/2000/svg"
   xmlns="http://www.w3.org/2000/svg"
   xmlns:sodipodi="http://sodipodi.sourceforge.net/DTD/sodipodi-0.dtd"
   xmlns:inkscape="http://www.inkscape.org/namespaces/inkscape"
   width="12mm"
   height="12mm"
   viewBox="0 0 12 12"
   version="1.1"
   id="svg8"
   inkscape:version="1.0.2 (e86c870, 2021-01-15)"
   sodipodi:docname="DogIcon.svg">
  <defs
     id="defs2" />
  <sodipodi:namedview
     id="base"
     pagecolor="#ffffff"
     bordercolor="#666666"
     borderopacity="1.0"
     inkscape:pageopacity="0.0"
     inkscape:pageshadow="2"
     inkscape:zoom="3.959798"
     inkscape:cx="132.16543"
     inkscape:cy="93.492343"
     inkscape:document-units="mm"
     inkscape:current-layer="layer1"
     inkscape:document-rotation="0"
     showgrid="false"
     inkscape:window-width="1684"
     inkscape:window-height="1376"
     inkscape:window-x="2836"
     inkscape:window-y="27"
     inkscape:window-maximized="0" />
  <metadata
     id="metadata5">
    <rdf:RDF>
      <cc:Work
         rdf:about="">
        <dc:format>image/svg+xml</dc:format>
        <dc:type
           rdf:resource="http://purl.org/dc/dcmitype/StillImage" />
        <dc:title></dc:title>
      </cc:Work>
    </rdf:RDF>
  </metadata>
  <g
     inkscape:label="Layer 1"
     inkscape:groupmode="layer"
     id="layer1">
    <path
       style="fill:#ffffff;stroke-width:0.264583"
       d="m 0.98725584,10.170672 c -0.174625,-0.1746261 -0.3175,-0.8267241 -0.3175,-1.4491091 0,-0.915087 0.126564,-1.214537 0.66145796,-1.565014 0.610298,-0.399882 0.661458,-0.590209 0.661458,-2.4607687 0,-2.6367491 0.38718,-3.2646921 1.9430387,-3.1512971 0.896561,0.06534 1.099671,0.177881 1.099671,0.6093131 0,0.294991 -0.26345,0.644748 -0.595314,0.790345 -0.327422,0.143647 -0.595312,0.471069 -0.595312,0.727604 0,0.384733 0.237081,0.466426 1.353616,0.466426 1.13643,0 1.56094,0.152194 2.64583,0.948576 1.24346,0.9127807 1.29222,0.9977817 1.29222,2.2525487 0,0.717185 0.13785,1.52471 0.30634,1.794501 0.4245,0.679733 0.0988,1.3543751 -0.6539,1.3543751 -0.79212,0 -1.45384,-0.7203091 -1.79423,-1.9530821 -0.23861,-0.864192 -0.35322,-0.957335 -1.17794,-0.957335 -0.73927,0 -0.9136,0.101662 -0.9136,0.532757 0,0.293016 0.13785,0.753494 0.30634,1.023285 0.45906,0.735075 0.0956,1.3543751 -0.794809,1.3543751 -0.8240497,0 -1.2494747,-0.354811 -1.4012917,-1.1687011 -0.05204,-0.278982 -0.237234,-0.554724 -0.411543,-0.61276 -0.224583,-0.07477 -0.272315,0.169388 -0.163819,0.837971 0.140343,0.8648321 0.09949,0.9434901 -0.490053,0.9434901 -0.353738,0 -0.786035,-0.142875 -0.96065996,-0.3175 z M 1.9275338,9.0991089 c -0.05919,-0.757936 0.01772,-0.869688 0.648628,-0.942475 0.615152,-0.07097 0.747539,0.04062 0.94168,0.79375 0.157226,0.609927 0.4021187,0.902032 0.8055727,0.960877 0.662547,0.09664 0.788647,-0.344616 0.166701,-0.583281 -0.295556,-0.113415 -0.38959,-0.441179 -0.330729,-1.152786 l 0.08224,-0.994314 h 1.455215 1.45521 l 0.3764,1.253439 c 0.23519,0.783174 0.56529,1.313386 0.87984,1.413221 0.5539,0.1758011 1.0617,-0.153678 0.52969,-0.343681 -0.21297,-0.07606 -0.33073,-0.664313 -0.33073,-1.652166 0,-1.46102 -0.0472,-1.570181 -0.99137,-2.2930557 -0.78549,-0.60138 -1.3487,-0.786481 -2.71198,-0.891299 L 3.1832968,4.5350462 v -0.922418 c 0,-0.714212 0.119443,-0.943963 0.529167,-1.017869 0.9402477,-0.169602 1.0816577,-0.5732541 0.2008227,-0.5732541 -0.4570777,0 -0.9247357,0.1488281 -1.0392377,0.3307291 -0.114503,0.181901 -0.270358,1.34276 -0.346344,2.579687 -0.123535,2.0109227 -0.201167,2.2766017 -0.73347,2.5101357 -0.483416,0.212086 -0.595313,0.47318 -0.595313,1.389063 0,0.827444 0.105986,1.127885 0.397882,1.127885 0.286279,0 0.379046,-0.241196 0.33073,-0.859896 z M 8.1418515,4.7263662 c -0.71399,-0.596576 -0.86187,-0.904776 -0.8599,-1.792049 0.004,-1.6352491 0.79216,-2.15953006 1.87028,-1.2435421 1.1295905,0.9597121 2.6300205,2.5898601 2.6300205,2.8573831 0,1.13186 -2.3607605,1.2474257 -3.6404005,0.178208 z m 2.9830905,-0.06573 c 0.20859,-0.337505 -1.5269805,-2.109965 -2.0660505,-2.109965 -0.21726,0 -0.4737,-0.205022 -0.56985,-0.455606 -0.14977,-0.3902901 -0.21015,-0.3997731 -0.42113,-0.06615 -0.47381,0.749203 -0.27863,1.787205 0.44273,2.354632 0.73048,0.574591 2.3259205,0.74369 2.6143005,0.277085 z"
       id="path30" />
  </g>
</svg>
