<?xml version="1.0" encoding="UTF-8" standalone="no"?>
<svg
   xmlns:dc="http://purl.org/dc/elements/1.1/"
   xmlns:cc="http://creativecommons.org/ns#"
   xmlns:rdf="http://www.w3.org/1999/02/22-rdf-syntax-ns#"
   xmlns:svg="http://www.w3.org/2000/svg"
   xmlns="http://www.w3.org/2000/svg"
   xmlns:sodipodi="http://sodipodi.sourceforge.net/DTD/sodipodi-0.dtd"
   xmlns:inkscape="http://www.inkscape.org/namespaces/inkscape"
   width="12mm"
   height="12mm"
   viewBox="0 0 12 12"
   version="1.1"
   id="svg8"
   inkscape:version="1.0.2 (e86c870, 2021-01-15)"
   sodipodi:docname="DogIcon.svg">
  <defs
     id="defs2" />
  <sodipodi:namedview
     id="base"
     pagecolor="#ffffff"
     bordercolor="#666666"
     borderopacity="1.0"
     inkscape:pageopacity="0.0"
     inkscape:pageshadow="2"
     inkscape:zoom="15.839192"
     inkscape:cx="39.839605"
     inkscape:cy="26.399453"
     inkscape:document-units="mm"
     inkscape:current-layer="layer1"
     inkscape:document-rotation="0"
     showgrid="false"
     inkscape:window-width="1684"
     inkscape:window-height="1376"
     inkscape:window-x="2836"
     inkscape:window-y="27"
     inkscape:window-maximized="0" />
  <metadata
     id="metadata5">
    <rdf:RDF>
      <cc:Work
         rdf:about="">
        <dc:format>image/svg+xml</dc:format>
        <dc:type
           rdf:resource="http://purl.org/dc/dcmitype/StillImage" />
        <dc:title />
      </cc:Work>
    </rdf:RDF>
  </metadata>
  <g
     inkscape:label="Layer 1"
     inkscape:groupmode="layer"
     id="layer1">
    <path
       style="fill:#ffffff;stroke:#ffffff;stroke-width:0.250608"
       d="M 0.96349883,10.194429 C 0.79809714,10.029026 0.66276849,9.4113707 0.66276849,8.8218587 c 0,-0.8667541 0.11987916,-1.1503878 0.62652121,-1.4823534 0.5780634,-0.3787611 0.6265212,-0.5590354 0.6265212,-2.3307962 0,-2.4974817 0.36673,-3.0922582 1.8404116,-2.9848524 0.8492066,0.061889 1.0415888,0.1684857 1.0415888,0.5771305 0,0.2794102 -0.2495352,0.6106938 -0.5638708,0.7486007 -0.3101283,0.1360598 -0.5638689,0.4461881 -0.5638689,0.6891735 0,0.3644122 0.2245589,0.4417904 1.2821209,0.4417904 1.0764062,0 1.4784945,0.1441554 2.506083,0.8984743 1.1777832,0.8645696 1.2239678,0.945081 1.2239678,2.1335739 0,0.6793049 0.130569,1.4441782 0.2901597,1.6997194 0.4020789,0.643831 0.093582,1.2828396 -0.6193624,1.2828396 -0.7502819,0 -1.3770513,-0.6822636 -1.6994626,-1.8499242 C 6.4275708,7.8266875 6.3190143,7.7384642 5.5378542,7.7384642 c -0.7002234,0 -0.8653456,0.096292 -0.8653456,0.5046179 0,0.2775395 0.130569,0.7136961 0.2901597,0.9692373 0.4348135,0.6962499 0.090551,1.2828396 -0.7528289,1.2828396 -0.7805252,0 -1.1834801,-0.33607 -1.3272785,-1.1069725 C 2.8332696,9.1239397 2.6578571,8.8627618 2.4927547,8.8077912 2.2800337,8.7369703 2.2348228,8.9682324 2.3375883,9.6015023 c 0.1329304,0.8191537 0.094235,0.8936567 -0.4641695,0.8936567 -0.3350543,0 -0.7445183,-0.135328 -0.90991997,-0.30073 z M 1.8541134,9.1794635 C 1.7980496,8.4615601 1.8708974,8.3557106 2.4684822,8.286768 3.0511432,8.2195465 3.1765378,8.3252426 3.3604247,9.0385939 3.5093464,9.6163059 3.7413044,9.8929825 4.1234488,9.9487194 4.7510015,10.040255 4.8704412,9.6223053 4.2813451,9.3962461 4.0013997,9.2888214 3.9123323,8.9783692 3.9680844,8.3043477 l 0.077896,-0.9417965 h 1.3783537 1.378349 L 7.1592027,8.5497863 C 7.3819705,9.2915948 7.6946354,9.7938021 7.9925715,9.888364 8.5172157,10.05488 8.9981948,9.742803 8.4942844,9.5628355 8.292563,9.4907929 8.1810229,8.9336101 8.1810229,7.9979333 c 0,-1.383852 -0.044707,-1.4872474 -0.939008,-2.1719414 C 6.4980128,5.2563755 5.9645503,5.0810511 4.6732758,4.9817693 L 3.0435497,4.8564647 V 3.9827668 c 0,-0.6764888 0.1131343,-0.8941049 0.5012175,-0.9641073 0.8905859,-0.160644 1.0245269,-0.5429761 0.1902157,-0.5429761 -0.4329358,0 -0.8758932,0.1409673 -0.9843474,0.3132607 C 2.6421803,2.9612375 2.4945572,4.0607824 2.4225846,5.2323776 2.3055745,7.1370878 2.2320428,7.3887342 1.7278549,7.6099334 1.2699719,7.8108175 1.1639851,8.0581211 1.1639851,8.9256291 c 0,0.7837402 0.100388,1.0683126 0.3768667,1.0683126 0.2711584,0 0.3590256,-0.2284565 0.3132616,-0.8144782 z M 7.7402043,5.0376796 C 7.0639257,4.4726135 6.9238564,4.1806919 6.9257223,3.3402828 6.9295111,1.791404 7.6760422,1.2948144 8.6972182,2.1624218 c 1.069928,0.9090222 2.4911088,2.4530694 2.4911088,2.7064624 0,1.0720776 -2.2360705,1.1815394 -3.4481227,0.1687954 z M 10.565734,4.9754213 C 10.763307,4.6557426 9.1194057,2.9769001 8.6088082,2.9769001 8.4030234,2.9769001 8.160128,2.7827069 8.0690565,2.5453582 7.927197,2.1756824 7.8700061,2.1667003 7.6701696,2.4827021 7.2213853,3.1923338 7.4062563,4.1755108 8.0895156,4.7129676 8.7814132,5.2572099 10.292586,5.4173775 10.565734,4.9754175 Z"
       id="path30" />
    <path
       sodipodi:type="star"
       style="fill:#ffffff;stroke:#ffffff;stroke-width:0.250608"
       id="path203"
       sodipodi:sides="3"
       sodipodi:cx="7.6665292"
       sodipodi:cy="2.3297944"
       sodipodi:r1="2.2204554"
       sodipodi:r2="1.1102276"
       sodipodi:arg1="2.1731672"
       sodipodi:arg2="3.2203647"
       inkscape:flatsided="false"
       inkscape:rounded="0"
       inkscape:randomized="0"
       d="M 6.4084244,4.1594377 6.5597443,2.2424299 6.711064,0.32542204 8.2955815,1.4149728 9.8800991,2.5045235 8.1442617,3.3319805 Z"
       inkscape:transform-center-x="-0.47773271"
       inkscape:transform-center-y="-0.087364397" />
  </g>
</svg>
