<?xml version="1.0" encoding="UTF-8" standalone="no"?>
<svg
   xmlns:dc="http://purl.org/dc/elements/1.1/"
   xmlns:cc="http://creativecommons.org/ns#"
   xmlns:rdf="http://www.w3.org/1999/02/22-rdf-syntax-ns#"
   xmlns:svg="http://www.w3.org/2000/svg"
   xmlns="http://www.w3.org/2000/svg"
   xmlns:sodipodi="http://sodipodi.sourceforge.net/DTD/sodipodi-0.dtd"
   xmlns:inkscape="http://www.inkscape.org/namespaces/inkscape"
   width="210mm"
   height="210mm"
   viewBox="0 0 210 210"
   version="1.1"
   id="svg8"
   inkscape:version="1.0.2 (e86c870, 2021-01-15)"
   sodipodi:docname="Logo.svg">
  <defs
     id="defs2" />
  <sodipodi:namedview
     id="base"
     pagecolor="#ffffff"
     bordercolor="#666666"
     borderopacity="1.0"
     inkscape:pageopacity="0.0"
     inkscape:pageshadow="2"
     inkscape:zoom="0.49497475"
     inkscape:cx="-164.05409"
     inkscape:cy="120.57959"
     inkscape:document-units="mm"
     inkscape:current-layer="layer1"
     inkscape:document-rotation="0"
     showgrid="false"
     inkscape:window-width="1514"
     inkscape:window-height="1199"
     inkscape:window-x="167"
     inkscape:window-y="122"
     inkscape:window-maximized="0" />
  <metadata
     id="metadata5">
    <rdf:RDF>
      <cc:Work
         rdf:about="">
        <dc:format>image/svg+xml</dc:format>
        <dc:type
           rdf:resource="http://purl.org/dc/dcmitype/StillImage" />
        <dc:title></dc:title>
      </cc:Work>
    </rdf:RDF>
  </metadata>
  <g
     inkscape:label="Layer 1"
     inkscape:groupmode="layer"
     id="layer1">
    <path
       style="fill:#d1e59b;stroke:none;stroke-width:0.812118"
       d="m 37.180198,159.03988 c 0,-14.05212 -4.572556,-37.99745 2.82804,-50.3506 3.805509,-6.35239 27.594753,-16.983836 28.57092,-3.24846 0.739028,10.39918 -11.994024,4.53894 -16.177981,8.72296 -3.68434,3.68461 -1.414957,16.38777 -1.414957,21.32463 11.462249,0 29.965572,-3.56032 40.605957,0.69599 5.583305,2.23335 10.693993,7.74193 15.430273,11.38917 3.94446,3.03732 10.69155,6.61145 12.5042,11.46956 3.46287,9.28007 -0.32241,23.51328 -0.32241,33.29364 49.38416,-2.12613 83.37621,-54.76121 77.73117,-100.702782 C 192.47038,55.295875 165.30905,24.526561 129.76178,15.68078 71.391526,1.1557934 13.385107,48.258049 17.616655,108.68848 c 1.148174,16.39749 6.187209,39.29603 19.563543,50.3514 m 82.024042,-51.16351 c 14.14711,1.11829 20.83815,9.23136 29.57819,19.49086 4.12964,4.84672 9.72268,10.51288 2.05952,15.24511 -12.73971,7.86617 -30.11417,-0.10222 -39.75892,-8.13663 -2.64668,-2.20409 -7.15232,-4.71519 -8.43141,-8.05948 -1.95722,-5.11796 1.49186,-21.7851 4.02405,-26.613146 5.36812,-10.236754 12.52449,1.931216 12.52857,8.073286 m 6.14287,14.75701 c -1.61694,1.05576 -0.26243,4.13369 1.52029,2.97074 1.61691,-1.05576 0.26244,-4.13369 -1.52029,-2.97074 m -60.554864,49.40039 c 0,2.99837 -0.846228,7.60632 0.83486,10.24084 1.724941,2.70434 6.087643,3.9063 8.91057,5.02376 8.613336,3.41173 18.328715,5.65885 27.612064,5.85051 l -6.276072,-20.28023 -9.154206,-0.83488 z"
       id="path28" />
    <path
       style="fill:#000000;stroke-width:0.264583"
       id="path26"
       d="" />
    <path
       style="fill:#000000;stroke-width:0.264583"
       id="path24"
       d="" />
  </g>
</svg>
